<!DOCTYPE svg PUBLIC "-//W3C//DTD SVG 1.1//EN" "http://www.w3.org/Graphics/SVG/1.1/DTD/svg11.dtd">
<!-- Uploaded to: SVG Repo, www.svgrepo.com, Transformed by: SVG Repo Mixer Tools -->
<svg width="800px" height="800px" viewBox="0 0 24 24" fill="none" xmlns="http://www.w3.org/2000/svg" stroke="#ffffff">
<g id="SVGRepo_bgCarrier" stroke-width="0"/>
<g id="SVGRepo_tracerCarrier" stroke-linecap="round" stroke-linejoin="round"/>
<g id="SVGRepo_iconCarrier">
<path fill-rule="evenodd" clip-rule="evenodd" d="M17.25 9.25a3.49 3.49 0 0 1-2.545-1.098l-5.122 2.776a3.498 3.498 0 0 1-.002 2.148l5.123 2.773a3.5 3.5 0 1 1-.9 1.787l-5.365-2.904a3.5 3.5 0 1 1 .004-5.46l5.361-2.906A3.5 3.5 0 1 1 17.25 9.25zm1.5-3.5a1.5 1.5 0 1 1-3 0 1.5 1.5 0 0 1 3 0zm-1.5 14a1.5 1.5 0 1 0 0-3 1.5 1.5 0 0 0 0 3zM7.75 12a1.5 1.5 0 1 1-3 0 1.5 1.5 0 0 1 3 0z" fill="#BEB6FC"/>
</g>
</svg>